ffmpeg started on 2025-06-03 at 19:38:00
Report written to "D:\Convert\FFMetrics\reports\psnr_report-6.txt"
Log level: 32
Command line:
ffmpeg -hide_banner -nostdin -i "G:\\\xc0\xed\xe8\xec\xe5\\\xce\xed\xe3\xee\xe8\xed\xe3\xe8\\!_36_\xce\xf1\xe5\xed\xfc_2024\\DreamCast\\\xc1\xe0\xf8\xed\xff \xc1\xee\xe3\xe0\\\xd2\xc2-2\\[DC] Kami no Tou - Ouji no Kikan - 09_Telegram_HEVC.mkv" -i "G:\\\xc0\xed\xe8\xec\xe5\\\xce\xed\xe3\xee\xe8\xed\xe3\xe8\\!_36_\xce\xf1\xe5\xed\xfc_2024\\DreamCast\\\xc1\xe0\xf8\xed\xff \xc1\xee\xe3\xe0\\\xd2\xc2-2\\[DC] Kami no Tou - Ouji no Kikan - 09_Telegram.mp4" -lavfi "[0:v]settb=AVTB,setpts=PTS-STARTPTS,format=pix_fmts=yuv420p10,fps=24000/1001,scale=1920:1080:flags=bicubic[main];[1:v]settb=AVTB,setpts=PTS-STARTPTS,format=pix_fmts=yuv420p,fps=24000/1001,scale=1920:1080:flags=bicubic[ref];[main][ref]psnr=eof_action=endall:stats_file='D\\:/Convert/FFMetrics/logs/psnr_logfile-6.txt'" -f null -
Input #0, matroska,webm, from 'G:\Аниме\Онгоинги\!_36_Осень_2024\DreamCast\Башня Бога\ТВ-2\[DC] Kami no Tou - Ouji no Kikan - 09_Telegram_HEVC.mkv':
  Metadata:
    COMPATIBLE_BRANDS: isomiso2avc1mp41
    MAJOR_BRAND     : isom
    MINOR_VERSION   : 512
    ENCODER         : Lavf61.7.100
  Duration: 00:23:47.93, start: -0.021000, bitrate: 1286 kb/s
  Stream #0:0: Video: hevc (Main 10), yuv420p10le(tv, bt709, progressive), 1920x1080 [SAR 1:1 DAR 16:9], 23.98 fps, 23.98 tbr, 1k tbn (default)
      Metadata:
        HANDLER_NAME    : VideoHandler
        VENDOR_ID       : [0][0][0][0]
        ENCODER         : Lavc61.19.100 libx265
        BPS             : 1089057
        DURATION        : 00:23:47.592708333
        NUMBER_OF_FRAMES: 34228
        NUMBER_OF_BYTES : 194341268
        _STATISTICS_WRITING_APP: mkvpropedit v66.0.0 ('Josie') 64-bit
        _STATISTICS_WRITING_DATE_UTC: 2025-05-29 17:13:50
        _STATISTICS_TAGS: BPS DURATION NUMBER_OF_FRAMES NUMBER_OF_BYTES
  Stream #0:1: Audio: aac (LC), 48000 Hz, stereo, fltp (default)
      Metadata:
        HANDLER_NAME    : SoundHandler
        VENDOR_ID       : [0][0][0][0]
        ENCODER         : Lavc61.19.100 aac
        BPS             : 193701
        DURATION        : 00:23:47.925000000
        NUMBER_OF_FRAMES: 66935
        NUMBER_OF_BYTES : 34573869
        _STATISTICS_WRITING_APP: mkvpropedit v66.0.0 ('Josie') 64-bit
        _STATISTICS_WRITING_DATE_UTC: 2025-05-29 17:13:50
        _STATISTICS_TAGS: BPS DURATION NUMBER_OF_FRAMES NUMBER_OF_BYTES
Input #1, mov,mp4,m4a,3gp,3g2,mj2, from 'G:\Аниме\Онгоинги\!_36_Осень_2024\DreamCast\Башня Бога\ТВ-2\[DC] Kami no Tou - Ouji no Kikan - 09_Telegram.mp4':
  Metadata:
    major_brand     : isom
    minor_version   : 512
    compatible_brands: isomiso2avc1mp41
    encoder         : Lavf61.1.100
  Duration: 00:23:47.89, start: 0.000000, bitrate: 3203 kb/s
  Stream #1:0[0x1](und): Video: h264 (High) (avc1 / 0x31637661), yuv420p(tv, bt709, progressive), 1920x1080 [SAR 1:1 DAR 16:9], 3056 kb/s, 23.98 fps, 23.98 tbr, 24k tbn (default)
      Metadata:
        handler_name    : VideoHandler
        vendor_id       : [0][0][0][0]
        encoder         : Lavc61.3.100 h264_qsv
  Stream #1:1[0x2](und): Audio: aac (HE-AACv2) (mp4a / 0x6134706D), 48000 Hz, stereo, fltp, 144 kb/s (default)
      Metadata:
        handler_name    : SoundHandler
        vendor_id       : [0][0][0][0]
Stream mapping:
  Stream #0:0 (hevc) -> settb:default
  Stream #1:0 (h264) -> settb:default
  psnr:default -> Stream #0:0 (wrapped_avframe)
  Stream #0:1 -> #0:1 (aac (native) -> pcm_s16le (native))
Output #0, null, to 'pipe:':
  Metadata:
    COMPATIBLE_BRANDS: isomiso2avc1mp41
    MAJOR_BRAND     : isom
    MINOR_VERSION   : 512
    encoder         : Lavf61.7.100
  Stream #0:0: Video: wrapped_avframe, yuv420p10le(tv, bt709, progressive), 1920x1080 [SAR 1:1 DAR 16:9], q=2-31, 200 kb/s, 23.98 fps, 23.98 tbn
      Metadata:
        encoder         : Lavc61.19.100 wrapped_avframe
  Stream #0:1: Audio: pcm_s16le, 48000 Hz, stereo, s16, 1536 kb/s (default)
      Metadata:
        HANDLER_NAME    : SoundHandler
        VENDOR_ID       : [0][0][0][0]
        _STATISTICS_TAGS: BPS DURATION NUMBER_OF_FRAMES NUMBER_OF_BYTES
        BPS             : 193701
        DURATION        : 00:23:47.925000000
        NUMBER_OF_FRAMES: 66935
        NUMBER_OF_BYTES : 34573869
        _STATISTICS_WRITING_APP: mkvpropedit v66.0.0 ('Josie') 64-bit
        _STATISTICS_WRITING_DATE_UTC: 2025-05-29 17:13:50
        encoder         : Lavc61.19.100 pcm_s16le
frame=  169 fps=0.0 q=-0.0 size=N/A time=00:00:07.04 bitrate=N/A speed=13.9x    frame=  430 fps=417 q=-0.0 size=N/A time=00:00:17.93 bitrate=N/A speed=17.4x    frame=  688 fps=447 q=-0.0 size=N/A time=00:00:28.69 bitrate=N/A speed=18.6x    frame=  962 fps=466 q=-0.0 size=N/A time=00:00:40.12 bitrate=N/A speed=19.5x    frame= 1244 fps=484 q=-0.0 size=N/A time=00:00:51.88 bitrate=N/A speed=20.2x    frame= 1521 fps=492 q=-0.0 size=N/A time=00:01:03.43 bitrate=N/A speed=20.5x    frame= 1764 fps=490 q=-0.0 size=N/A time=00:01:13.57 bitrate=N/A speed=20.4x    frame= 2046 fps=496 q=-0.0 size=N/A time=00:01:25.33 bitrate=N/A speed=20.7x    frame= 2269 fps=490 q=-0.0 size=N/A time=00:01:34.63 bitrate=N/A speed=20.4x    frame= 2473 fps=480 q=-0.0 size=N/A time=00:01:43.14 bitrate=N/A speed=  20x    frame= 2720 fps=480 q=-0.0 size=N/A time=00:01:53.44 bitrate=N/A speed=  20x    frame= 2998 fps=486 q=-0.0 size=N/A time=00:02:05.04 bitrate=N/A speed=20.3x    frame= 3203 fps=478 q=-0.0 size=N/A time=00:02:13.59 bitrate=N/A speed=19.9x    frame= 3343 fps=463 q=-0.0 size=N/A time=00:02:19.43 bitrate=N/A speed=19.3x    frame= 3500 fps=453 q=-0.0 size=N/A time=00:02:25.97 bitrate=N/A speed=18.9x    frame= 3640 fps=442 q=-0.0 size=N/A time=00:02:31.81 bitrate=N/A speed=18.4x    frame= 3782 fps=432 q=-0.0 size=N/A time=00:02:37.74 bitrate=N/A speed=  18x    frame= 3919 fps=422 q=-0.0 size=N/A time=00:02:43.45 bitrate=N/A speed=17.6x    frame= 4063 fps=415 q=-0.0 size=N/A time=00:02:49.46 bitrate=N/A speed=17.3x    frame= 4224 fps=410 q=-0.0 size=N/A time=00:02:56.17 bitrate=N/A speed=17.1x    frame= 4402 fps=407 q=-0.0 size=N/A time=00:03:03.60 bitrate=N/A speed=  17x    frame= 4551 fps=402 q=-0.0 size=N/A time=00:03:09.81 bitrate=N/A speed=16.7x    frame= 4678 fps=395 q=-0.0 size=N/A time=00:03:15.11 bitrate=N/A speed=16.5x    frame= 4793 fps=387 q=-0.0 size=N/A time=00:03:19.90 bitrate=N/A speed=16.2x    frame= 4899 fps=380 q=-0.0 size=N/A time=00:03:24.32 bitrate=N/A speed=15.9x    frame= 5026 fps=375 q=-0.0 size=N/A time=00:03:29.62 bitrate=N/A speed=15.6x    frame= 5174 fps=372 q=-0.0 size=N/A time=00:03:35.79 bitrate=N/A speed=15.5x    frame= 5360 fps=371 q=-0.0 size=N/A time=00:03:43.55 bitrate=N/A speed=15.5x    frame= 5635 fps=377 q=-0.0 size=N/A time=00:03:55.02 bitrate=N/A speed=15.7x    frame= 5934 fps=384 q=-0.0 size=N/A time=00:04:07.49 bitrate=N/A speed=  16x    frame= 6220 fps=389 q=-0.0 size=N/A time=00:04:19.42 bitrate=N/A speed=16.2x    frame= 6505 fps=394 q=-0.0 size=N/A time=00:04:31.31 bitrate=N/A speed=16.4x    frame= 6769 fps=398 q=-0.0 size=N/A time=00:04:42.32 bitrate=N/A speed=16.6x    frame= 7025 fps=401 q=-0.0 size=N/A time=00:04:53.00 bitrate=N/A speed=16.7x    frame= 7259 fps=402 q=-0.0 size=N/A time=00:05:02.76 bitrate=N/A speed=16.8x    frame= 7516 fps=405 q=-0.0 size=N/A time=00:05:13.47 bitrate=N/A speed=16.9x    frame= 7765 fps=407 q=-0.0 size=N/A time=00:05:23.86 bitrate=N/A speed=  17x    frame= 7950 fps=406 q=-0.0 size=N/A time=00:05:31.58 bitrate=N/A speed=16.9x    frame= 8102 fps=403 q=-0.0 size=N/A time=00:05:37.92 bitrate=N/A speed=16.8x    frame= 8343 fps=405 q=-0.0 size=N/A time=00:05:47.97 bitrate=N/A speed=16.9x    frame= 8619 fps=408 q=-0.0 size=N/A time=00:05:59.48 bitrate=N/A speed=  17x    frame= 8878 fps=410 q=-0.0 size=N/A time=00:06:10.28 bitrate=N/A speed=17.1x    frame= 9106 fps=410 q=-0.0 size=N/A time=00:06:19.79 bitrate=N/A speed=17.1x    frame= 9373 fps=413 q=-0.0 size=N/A time=00:06:30.93 bitrate=N/A speed=17.2x    frame= 9662 fps=416 q=-0.0 size=N/A time=00:06:42.98 bitrate=N/A speed=17.4x    frame= 9916 fps=418 q=-0.0 size=N/A time=00:06:53.57 bitrate=N/A speed=17.4x    frame=10188 fps=420 q=-0.0 size=N/A time=00:07:04.92 bitrate=N/A speed=17.5x    frame=10453 fps=422 q=-0.0 size=N/A time=00:07:15.97 bitrate=N/A speed=17.6x    frame=10720 fps=424 q=-0.0 size=N/A time=00:07:27.11 bitrate=N/A speed=17.7x    frame=10976 fps=425 q=-0.0 size=N/A time=00:07:37.79 bitrate=N/A speed=17.7x    frame=11237 fps=427 q=-0.0 size=N/A time=00:07:48.67 bitrate=N/A speed=17.8x    frame=11518 fps=430 q=-0.0 size=N/A time=00:08:00.39 bitrate=N/A speed=17.9x    frame=11796 fps=432 q=-0.0 size=N/A time=00:08:11.99 bitrate=N/A speed=  18x    frame=12073 fps=433 q=-0.0 size=N/A time=00:08:23.54 bitrate=N/A speed=18.1x    frame=12332 fps=435 q=-0.0 size=N/A time=00:08:34.34 bitrate=N/A speed=18.1x    frame=12582 fps=436 q=-0.0 size=N/A time=00:08:44.77 bitrate=N/A speed=18.2x    frame=12842 fps=437 q=-0.0 size=N/A time=00:08:55.61 bitrate=N/A speed=18.2x    frame=13101 fps=438 q=-0.0 size=N/A time=00:09:06.42 bitrate=N/A speed=18.3x    frame=13394 fps=440 q=-0.0 size=N/A time=00:09:18.64 bitrate=N/A speed=18.4x    frame=13649 fps=441 q=-0.0 size=N/A time=00:09:29.27 bitrate=N/A speed=18.4x    frame=13908 fps=442 q=-0.0 size=N/A time=00:09:40.07 bitrate=N/A speed=18.4x    frame=14193 fps=444 q=-0.0 size=N/A time=00:09:51.96 bitrate=N/A speed=18.5x    frame=14431 fps=444 q=-0.0 size=N/A time=00:10:01.89 bitrate=N/A speed=18.5x    frame=14620 fps=443 q=-0.0 size=N/A time=00:10:09.77 bitrate=N/A speed=18.5x    frame=14883 fps=444 q=-0.0 size=N/A time=00:10:20.74 bitrate=N/A speed=18.5x    frame=15142 fps=445 q=-0.0 size=N/A time=00:10:31.54 bitrate=N/A speed=18.6x    frame=15432 fps=447 q=-0.0 size=N/A time=00:10:43.64 bitrate=N/A speed=18.6x    frame=15704 fps=448 q=-0.0 size=N/A time=00:10:54.98 bitrate=N/A speed=18.7x    frame=15976 fps=449 q=-0.0 size=N/A time=00:11:06.33 bitrate=N/A speed=18.7x    frame=16236 fps=450 q=-0.0 size=N/A time=00:11:17.17 bitrate=N/A speed=18.8x    frame=16508 fps=451 q=-0.0 size=N/A time=00:11:28.52 bitrate=N/A speed=18.8x    frame=16780 fps=452 q=-0.0 size=N/A time=00:11:39.86 bitrate=N/A speed=18.8x    frame=17070 fps=453 q=-0.0 size=N/A time=00:11:51.96 bitrate=N/A speed=18.9x    frame=17326 fps=454 q=-0.0 size=N/A time=00:12:02.63 bitrate=N/A speed=18.9x    frame=17622 fps=456 q=-0.0 size=N/A time=00:12:14.98 bitrate=N/A speed=  19x    frame=17905 fps=457 q=-0.0 size=N/A time=00:12:26.78 bitrate=N/A speed=19.1x    frame=18200 fps=458 q=-0.0 size=N/A time=00:12:39.09 bitrate=N/A speed=19.1x    frame=18468 fps=459 q=-0.0 size=N/A time=00:12:50.26 bitrate=N/A speed=19.1x    frame=18747 fps=460 q=-0.0 size=N/A time=00:13:01.90 bitrate=N/A speed=19.2x    frame=19021 fps=461 q=-0.0 size=N/A time=00:13:13.33 bitrate=N/A speed=19.2x    frame=19294 fps=462 q=-0.0 size=N/A time=00:13:24.72 bitrate=N/A speed=19.3x    frame=19584 fps=463 q=-0.0 size=N/A time=00:13:36.81 bitrate=N/A speed=19.3x    frame=19844 fps=464 q=-0.0 size=N/A time=00:13:47.66 bitrate=N/A speed=19.3x    frame=20127 fps=465 q=-0.0 size=N/A time=00:13:59.46 bitrate=N/A speed=19.4x    frame=20408 fps=466 q=-0.0 size=N/A time=00:14:11.18 bitrate=N/A speed=19.4x    frame=20686 fps=466 q=-0.0 size=N/A time=00:14:22.77 bitrate=N/A speed=19.5x    frame=20987 fps=468 q=-0.0 size=N/A time=00:14:35.33 bitrate=N/A speed=19.5x    frame=21261 fps=468 q=-0.0 size=N/A time=00:14:46.76 bitrate=N/A speed=19.5x    frame=21517 fps=469 q=-0.0 size=N/A time=00:14:57.43 bitrate=N/A speed=19.6x    frame=21774 fps=469 q=-0.0 size=N/A time=00:15:08.15 bitrate=N/A speed=19.6x    frame=22057 fps=470 q=-0.0 size=N/A time=00:15:19.96 bitrate=N/A speed=19.6x    frame=22315 fps=470 q=-0.0 size=N/A time=00:15:30.72 bitrate=N/A speed=19.6x    frame=22569 fps=471 q=-0.0 size=N/A time=00:15:41.31 bitrate=N/A speed=19.6x    frame=22808 fps=471 q=-0.0 size=N/A time=00:15:51.28 bitrate=N/A speed=19.6x    frame=23061 fps=471 q=-0.0 size=N/A time=00:16:01.83 bitrate=N/A speed=19.6x    frame=23280 fps=470 q=-0.0 size=N/A time=00:16:10.97 bitrate=N/A speed=19.6x    frame=23514 fps=470 q=-0.0 size=N/A time=00:16:20.72 bitrate=N/A speed=19.6x    frame=23765 fps=470 q=-0.0 size=N/A time=00:16:31.19 bitrate=N/A speed=19.6x    frame=24028 fps=471 q=-0.0 size=N/A time=00:16:42.16 bitrate=N/A speed=19.6x    frame=24316 fps=471 q=-0.0 size=N/A time=00:16:54.17 bitrate=N/A speed=19.7x    frame=24589 fps=472 q=-0.0 size=N/A time=00:17:05.56 bitrate=N/A speed=19.7x    frame=24864 fps=473 q=-0.0 size=N/A time=00:17:17.03 bitrate=N/A speed=19.7x    frame=25126 fps=473 q=-0.0 size=N/A time=00:17:27.96 bitrate=N/A speed=19.7x    frame=25346 fps=473 q=-0.0 size=N/A time=00:17:37.13 bitrate=N/A speed=19.7x    frame=25552 fps=472 q=-0.0 size=N/A time=00:17:45.73 bitrate=N/A speed=19.7x    frame=25779 fps=472 q=-0.0 size=N/A time=00:17:55.19 bitrate=N/A speed=19.7x    frame=26016 fps=472 q=-0.0 size=N/A time=00:18:05.08 bitrate=N/A speed=19.7x    frame=26287 fps=472 q=-0.0 size=N/A time=00:18:16.38 bitrate=N/A speed=19.7x    frame=26554 fps=472 q=-0.0 size=N/A time=00:18:27.52 bitrate=N/A speed=19.7x    frame=26843 fps=473 q=-0.0 size=N/A time=00:18:39.57 bitrate=N/A speed=19.7x    frame=27124 fps=474 q=-0.0 size=N/A time=00:18:51.29 bitrate=N/A speed=19.8x    frame=27396 fps=474 q=-0.0 size=N/A time=00:19:02.64 bitrate=N/A speed=19.8x    frame=27673 fps=475 q=-0.0 size=N/A time=00:19:14.19 bitrate=N/A speed=19.8x    frame=27938 fps=475 q=-0.0 size=N/A time=00:19:25.24 bitrate=N/A speed=19.8x    frame=28197 fps=475 q=-0.0 size=N/A time=00:19:36.04 bitrate=N/A speed=19.8x    frame=28471 fps=476 q=-0.0 size=N/A time=00:19:47.47 bitrate=N/A speed=19.8x    frame=28748 fps=476 q=-0.0 size=N/A time=00:19:59.03 bitrate=N/A speed=19.9x    frame=29044 fps=477 q=-0.0 size=N/A time=00:20:11.37 bitrate=N/A speed=19.9x    frame=29321 fps=478 q=-0.0 size=N/A time=00:20:22.93 bitrate=N/A speed=19.9x    frame=29607 fps=478 q=-0.0 size=N/A time=00:20:34.85 bitrate=N/A speed=  20x    frame=29873 fps=479 q=-0.0 size=N/A time=00:20:45.95 bitrate=N/A speed=  20x    frame=30158 fps=479 q=-0.0 size=N/A time=00:20:57.83 bitrate=N/A speed=  20x    frame=30434 fps=480 q=-0.0 size=N/A time=00:21:09.35 bitrate=N/A speed=  20x    frame=30716 fps=480 q=-0.0 size=N/A time=00:21:21.11 bitrate=N/A speed=  20x    frame=31000 fps=481 q=-0.0 size=N/A time=00:21:32.95 bitrate=N/A speed=20.1x    frame=31299 fps=482 q=-0.0 size=N/A time=00:21:45.42 bitrate=N/A speed=20.1x    frame=31584 fps=482 q=-0.0 size=N/A time=00:21:57.31 bitrate=N/A speed=20.1x    frame=31872 fps=483 q=-0.0 size=N/A time=00:22:09.32 bitrate=N/A speed=20.1x    frame=32131 fps=483 q=-0.0 size=N/A time=00:22:20.13 bitrate=N/A speed=20.1x    frame=32357 fps=483 q=-0.0 size=N/A time=00:22:29.55 bitrate=N/A speed=20.1x    frame=32570 fps=482 q=-0.0 size=N/A time=00:22:38.44 bitrate=N/A speed=20.1x    frame=32739 fps=481 q=-0.0 size=N/A time=00:22:45.48 bitrate=N/A speed=20.1x    frame=32922 fps=480 q=-0.0 size=N/A time=00:22:53.12 bitrate=N/A speed=  20x    frame=33136 fps=480 q=-0.0 size=N/A time=00:23:02.04 bitrate=N/A speed=  20x    frame=33311 fps=478 q=-0.0 size=N/A time=00:23:09.34 bitrate=N/A speed=  20x    frame=33520 fps=478 q=-0.0 size=N/A time=00:23:18.06 bitrate=N/A speed=19.9x    frame=33755 fps=478 q=-0.0 size=N/A time=00:23:27.86 bitrate=N/A speed=19.9x    frame=33989 fps=478 q=-0.0 size=N/A time=00:23:37.62 bitrate=N/A speed=19.9x    [Parsed_psnr_10 @ 0000018fa59da1c0] PSNR y:49.302388 u:52.115537 v:51.392956 average:49.973292 min:34.042437 max:inf
[out#0/null @ 0000018fa3595880] video:14707KiB audio:267740KiB subtitle:0KiB other streams:0KiB global headers:0KiB muxing overhead: unknown
frame=34228 fps=478 q=-0.0 Lsize=N/A time=00:23:47.59 bitrate=N/A speed=19.9x    
